P2
100 100 256
192
204
215
226
236
244
250
254
255
255
252
247
240
231
220
209
197
185
173
162
151
143
136
131
128
128
130
134
140
148
158
169
181
193
205
217
227
237
244
250
254
255
255
251
246
239
230
219
208
196
184
172
160
150
142
135
130
128
128
130
134
141
149
159
170
182
194
206
218
228
238
245
251
254
255
254
251
245
238
229
218
207
195
182
170
159
149
141
134
130
128
128
130
135
141
150
160
171
183
195
190
202
214
225
235
243
249
253
254
254
251
246
238
230
219
208
196
184
172
160
150
141
135
130
127
126
128
133
139
147
157
168
179
192
204
215
226
235
243
249
253
254
253
250
245
238
229
218
207
195
182
170
159
149
141
134
129
127
127
129
133
140
148
158
169
181
193
205
216
227
236
244
250
253
254
253
250
244
237
228
217
205
193
181
169
158
148
140
133
129
127
127
129
134
140
149
159
170
182
194
187
199
211
222
231
239
245
249
251
250
247
242
235
226
216
204
192
180
168
157
147
138
131
126
123
123
125
129
135
144
153
164
176
188
200
212
223
232
240
246
249
251
250
247
241
234
225
215
203
191
179
167
156
146
137
130
126
123
123
125
130
136
144
154
165
177
189
201
213
224
233
241
246
250
251
250
246
241
233
224
214
202
190
178
166
155
145
136
130
125
123
123
126
130
137
145
155
167
178
191
181
193
205
216
226
234
240
244
245
245
242
236
229
220
210
199
187
175
163
151
141
132
125
121
118
117
119
123
130
138
148
159
170
183
195
206
217
226
234
240
244
245
244
241
236
229
219
209
198
186
173
161
150
140
132
125
120
118
117
120
124
131
139
149
160
172
184
196
207
218
227
235
241
244
245
244
241
235
228
218
208
196
184
172
160
149
139
131
124
120
118
118
120
125
131
140
150
161
173
185
174
186
198
208
218
226
232
236
238
237
234
229
222
213
203
191
179
167
155
144
134
125
118
113
110
110
112
116
122
130
140
151
163
175
187
199
209
219
227
233
236
238
237
234
228
221
212
201
190
178
166
154
143
133
124
117
113
110
110
112
116
123
131
141
152
164
176
188
200
210
220
227
233
236
238
237
233
228
220
211
200
189
177
165
153
142
132
123
117
112
110
110
112
117
124
132
142
153
165
177
164
177
188
199
209
217
223
227
228
228
225
220
213
204
193
182
170
158
146
135
124
116
109
104
101
101
103
107
113
121
131
142
154
166
178
189
200
210
217
223
227
228
228
224
219
212
203
192
181
169
157
145
133
123
115
108
103
101
101
103
107
114
122
132
143
155
167
179
191
201
210
218
224
227
228
227
224
218
211
202
191
180
167
155
143
132
122
114
107
103
101
101
103
108
114
123
133
144
156
168
154
166
178
189
198
206
212
216
218
217
214
209
202
193
183
171
159
147
135
124
114
105
98
93
90
90
92
96
102
111
120
131
143
155
167
179
190
199
207
213
216
218
217
214
208
201
192
182
170
158
146
134
123
113
104
97
93
90
90
92
97
103
111
121
132
144
156
168
180
191
200
208
213
217
218
217
213
208
200
191
181
169
157
145
133
122
112
103
97
92
90
90
93
97
104
112
122
134
145
158
142
154
166
177
187
195
201
205
206
206
203
198
190
182
171
160
148
136
124
112
102
93
86
82
79
78
80
85
91
99
109
120
131
144
156
167
178
187
195
201
205
206
205
202
197
190
181
170
159
147
134
122
111
101
93
86
81
79
79
81
85
92
100
110
121
133
145
157
168
179
188
196
202
205
206
205
202
196
189
180
169
157
145
133
121
110
100
92
85
81
79
79
81
86
92
101
111
122
134
146
130
142
154
165
175
182
189
193
194
194
191
185
178
169
159
148
136
124
112
100
90
81
74
69
67
66
68
72
79
87
97
108
119
131
144
155
166
175
183
189
193
194
193
190
185
177
168
158
147
134
122
110
99
89
81
74
69
67
66
69
73
79
88
98
109
121
133
145
156
167
176
184
190
193
194
193
190
184
177
167
157
145
133
121
109
98
88
80
73
69
67
67
69
74
80
89
99
110
122
134
118
130
142
153
162
170
176
180
182
181
178
173
166
157
147
136
124
111
99
88
78
69
62
57
55
54
56
60
67
75
84
95
107
119
131
143
154
163
171
177
181
182
181
178
173
165
156
146
134
122
110
98
87
77
68
62
57
54
54
56
61
67
76
85
97
108
121
133
144
155
164
172
177
181
182
181
178
172
164
155
145
133
121
109
97
86
76
68
61
57
54
54
57
61
68
77
87
98
110
122
106
118
130
141
150
158
165
168
170
170
167
161
154
145
135
124
112
99
88
76
66
57
50
45
43
42
44
48
55
63
73
84
95
107
120
131
142
151
159
165
169
170
169
166
161
153
144
134
123
110
98
86
75
65
57
50
45
43
42
45
49
55
64
74
85
97
109
121
132
143
152
160
166
169
170
169
166
160
153
143
133
121
109
97
85
74
64
56
49
45
42
43
45
50
56
65
75
86
98
110
95
107
119
130
139
147
153
157
159
158
155
150
143
134
124
113
101
88
76
65
55
46
39
34
32
31
33
37
44
52
61
72
84
96
109
120
131
140
148
154
158
159
158
155
150
142
133
123
111
99
87
75
64
54
45
39
34
32
31
34
38
44
53
63
74
85
98
110
121
132
141
149
154
158
159
158
155
149
142
132
122
110
98
86
74
63
53
45
38
34
31
31
34
38
45
54
64
75
87
99
85
97
109
120
130
137
144
148
149
149
146
140
133
124
114
103
91
79
67
55
45
36
29
24
22
21
23
27
34
42
52
63
74
86
99
110
121
130
138
144
148
149
148
145
140
132
123
113
102
90
77
65
54
44
36
29
24
22
21
24
28
34
43
53
64
76
88
100
111
122
131
139
145
148
149
148
145
139
132
122
112
100
88
76
64
53
43
35
28
24
22
22
24
29
35
44
54
65
77
89
77
89
101
112
121
129
135
139
141
140
137
132
125
116
106
94
82
70
58
47
37
28
21
16
13
13
15
19
25
34
43
54
66
78
90
102
113
122
130
136
139
141
140
137
131
124
115
105
93
81
69
57
46
36
27
20
16
13
13
15
20
26
34
44
55
67
79
91
103
114
123
131
136
140
141
140
136
131
123
114
104
92
80
68
56
45
35
26
20
15
13
13
16
20
27
35
45
57
68
81
70
83
94
105
115
123
129
133
134
134
131
126
118
110
99
88
76
64
52
40
30
21
15
10
7
6
8
13
19
27
37
48
59
72
84
95
106
116
123
129
133
134
133
130
125
118
109
98
87
75
62
51
39
29
21
14
9
7
7
9
13
20
28
38
49
61
73
85
97
107
116
124
130
133
134
133
130
124
117
108
97
85
73
61
49
38
28
20
13
9
7
7
9
14
20
29
39
50
62
74
66
78
90
101
110
118
124
128
130
129
126
121
114
105
95
83
71
59
47
36
26
17
10
5
2
2
4
8
14
23
32
43
55
67
79
91
102
111
119
125
128
130
129
126
121
113
104
94
82
70
58
46
35
25
16
10
5
2
2
4
9
15
23
33
44
56
68
81
92
103
112
120
125
129
130
129
125
120
112
103
93
81
69
57
45
34
24
15
9
4
2
2
5
9
16
24
34
46
57
70
64
76
88
98
108
116
122
126
128
127
124
119
112
103
93
81
69
57
45
34
24
15
8
3
0
0
2
6
12
20
30
41
53
65
77
89
99
109
117
123
126
128
127
124
118
111
102
91
80
68
56
44
33
23
14
7
3
0
0
2
6
13
21
31
42
54
66
78
90
100
110
117
123
127
128
127
123
118
110
101
90
79
67
55
43
32
22
13
7
2
0
0
2
7
14
22
32
43
55
67
64
76
88
99
108
116
122
126
128
127
124
119
112
103
93
81
69
57
45
34
24
15
8
3
0
0
2
6
12
20
30
41
53
65
77
89
100
109
117
123
126
128
127
124
118
111
102
92
80
68
56
44
33
23
14
7
3
0
0
2
7
13
21
31
42
54
66
78
90
101
110
117
123
127
128
127
123
118
110
101
90
79
67
55
43
32
22
13
7
2
0
0
3
7
14
22
32
43
55
68
66
78
90
101
111
119
125
129
130
130
127
122
114
105
95
84
72
60
48
36
26
17
10
6
3
2
4
8
15
23
33
44
55
68
80
91
102
111
119
125
129
130
129
126
121
114
104
94
83
71
58
46
35
25
17
10
5
3
2
5
9
16
24
34
45
57
69
81
92
103
112
120
126
129
130
129
126
120
113
103
93
81
69
57
45
34
24
16
9
5
3
3
5
10
16
25
35
46
58
70
71
83
95
106
115
123
129
133
135
134
131
126
119
110
100
88
76
64
52
41
31
22
15
10
7
7
9
13
19
28
37
48
60
72
84
96
107
116
124
130
133
135
134
131
126
118
109
99
87
75
63
51
40
30
21
15
10
7
7
9
14
20
28
38
49
61
73
86
97
108
117
125
130
134
135
134
130
125
117
108
98
86
74
62
50
39
29
21
14
9
7
7
10
14
21
29
39
51
62
75
78
90
102
112
122
130
136
140
142
141
138
133
126
117
107
95
83
71
59
48
38
29
22
17
14
14
16
20
26
34
44
55
67
79
91
103
113
123
131
136
140
142
141
138
132
125
116
105
94
82
70
58
47
37
28
21
17
14
14
16
20
27
35
45
56
68
80
92
104
114
124
131
137
140
142
141
137
132
124
115
104
93
81
68
57
46
36
27
21
16
14
14
16
21
28
36
46
57
69
81
86
98
110
121
130
138
144
148
150
149
147
141
134
125
115
104
92
79
68
56
46
37
30
25
23
22
24
28
35
43
53
63
75
87
100
111
122
131
139
145
149
150
149
146
141
133
124
114
102
90
78
66
55
45
37
30
25
23
22
25
29
35
44
54
65
76
89
101
112
123
132
140
145
149
150
149
146
140
133
123
113
101
89
77
65
54
44
36
29
25
22
23
25
30
36
45
55
66
78
90
96
108
120
131
140
148
155
158
160
160
157
151
144
135
125
114
102
89
78
66
56
47
40
35
33
32
34
38
45
53
63
74
85
97
110
121
132
141
149
155
159
160
159
156
151
143
134
124
113
100
88
76
65
55
47
40
35
33
32
35
39
45
54
64
75
87
99
111
122
133
142
150
156
159
160
159
156
150
143
133
123
111
99
87
75
64
54
46
39
35
32
33
35
40
46
55
65
76
88
100
107
120
131
142
152
160
166
170
171
171
168
163
155
147
136
125
113
101
89
77
67
59
52
47
44
44
45
50
56
64
74
85
96
109
121
132
143
153
160
166
170
171
170
167
162
155
146
135
124
112
99
88
76
66
58
51
46
44
44
46
50
57
65
75
86
98
110
122
134
144
153
161
167
170
171
170
167
161
154
145
134
122
110
98
86
75
65
57
50
46
44
44
46
51
57
66
76
87
99
111
119
131
143
154
164
172
178
182
183
183
180
175
167
158
148
137
125
113
101
89
79
70
63
59
56
55
57
61
68
76
86
97
108
121
133
144
155
164
172
178
182
183
182
179
174
167
157
147
136
124
111
99
88
78
70
63
58
56
55
58
62
69
77
87
98
110
122
134
145
156
165
173
179
182
183
182
179
173
166
156
146
134
122
110
98
87
77
69
62
58
56
56
58
63
69
78
88
99
111
123
131
144
155
166
176
184
190
194
195
195
192
187
180
171
160
149
137
125
113
102
91
83
76
71
68
68
70
74
80
88
98
109
121
133
145
156
167
177
184
190
194
195
195
191
186
179
170
159
148
136
124
112
100
90
82
75
70
68
68
70
74
81
89
99
110
122
134
146
158
168
178
185
191
194
195
194
191
185
178
169
158
147
134
122
110
99
89
81
74
70
68
68
70
75
81
90
100
111
123
135
144
156
167
178
188
196
202
206
207
207
204
199
192
183
172
161
149
137
125
114
103
95
88
83
80
80
82
86
92
100
110
121
133
145
157
169
179
189
196
202
206
208
207
203
198
191
182
171
160
148
136
124
112
102
94
87
82
80
80
82
86
93
101
111
122
134
146
158
170
180
190
197
203
206
208
206
203
197
190
181
170
159
147
134
123
111
101
93
87
82
80
80
82
87
94
102
112
123
135
147
155
167
179
190
199
207
213
217
219
218
215
210
203
194
184
172
160
148
136
125
115
106
99
94
92
91
93
97
103
112
121
132
144
156
168
180
191
200
208
214
218
219
218
215
210
202
193
183
171
159
147
135
124
114
105
99
94
91
91
93
98
104
113
122
133
145
157
170
181
192
201
209
214
218
219
218
214
209
201
192
182
170
158
146
134
123
113
105
98
94
91
91
94
98
105
113
123
135
147
159
165
178
189
200
210
218
224
228
229
229
226
221
214
205
194
183
171
159
147
136
125
117
110
105
102
102
104
108
114
122
132
143
155
167
179
190
201
211
218
224
228
229
229
225
220
213
204
193
182
170
158
146
134
124
116
109
104
102
102
104
108
115
123
133
144
156
168
180
192
202
212
219
225
228
229
228
225
219
212
203
192
181
168
156
144
133
123
115
108
104
102
102
104
109
115
124
134
145
157
169
175
187
198
209
219
227
233
237
239
238
235
230
223
214
203
192
180
168
156
145
134
126
119
114
111
111
113
117
123
131
141
152
164
176
188
200
210
220
228
233
237
239
238
234
229
222
213
202
191
179
167
155
144
133
125
118
113
111
111
113
117
124
132
142
153
165
177
189
201
211
221
228
234
237
239
237
234
228
221
212
201
190
178
165
154
142
133
124
118
113
111
111
113
118
125
133
143
154
166
178
182
194
206
217
226
234
240
244
246
245
242
237
230
221
211
199
187
175
163
152
142
133
126
121
118
118
120
124
130
139
148
159
171
183
195
207
218
227
235
241
244
246
245
242
237
229
220
210
198
186
174
162
151
141
132
126
121
118
118
120
125
131
139
149
160
172
184
197
208
219
228
236
241
245
246
245
241
236
228
219
209
197
185
173
161
150
140
131
125
120
118
118
121
125
132
140
150
162
173
186
187
199
211
222
232
240
246
250
251
251
248
243
235
227
216
205
193
181
169
157
147
138
132
127
124
123
125
130
136
144
154
165
176
189
201
212
223
232
240
246
250
251
250
247
242
235
226
215
204
192
179
167
156
146
138
131
126
124
124
126
130
137
145
155
166
178
190
202
213
224
233
241
247
250
251
250
247
241
234
225
214
202
190
178
166
155
145
137
130
126
124
124
126
131
137
146
156
167
179
191
191
203
214
225
235
243
249
253
255
254
251
246
239
230
219
208
196
184
172
161
150
142
135
130
127
127
129
133
139
147
157
168
180
192
204
216
226
236
244
249
253
255
254
250
245
238
229
218
207
195
183
171
160
149
141
134
129
127
127
129
133
140
148
158
169
181
193
205
217
227
237
244
250
253
255
253
250
244
237
228
217
206
194
181
170
158
149
140
134
129
127
127
129
134
141
149
159
170
182
194
191
204
215
226
236
244
250
254
255
255
252
247
240
231
220
209
197
185
173
162
151
143
136
131
128
128
130
134
140
148
158
169
181
193
205
216
227
237
244
250
254
255
255
251
246
239
230
219
208
196
184
172
160
150
142
135
130
128
128
130
134
141
149
159
170
182
194
206
218
228
238
245
251
254
255
254
251
245
238
229
218
207
195
182
170
159
149
141
134
130
128
128
130
135
141
150
160
171
183
195
190
202
214
225
234
242
248
252
254
253
250
245
238
229
219
208
196
183
171
160
150
141
134
129
127
126
128
132
139
147
156
167
179
191
203
215
226
235
243
249
253
254
253
250
245
237
228
218
206
194
182
170
159
149
140
134
129
126
126
128
133
139
148
158
169
180
193
205
216
227
236
244
249
253
254
253
250
244
236
227
217
205
193
181
169
158
148
140
133
129
126
126
129
133
140
149
159
170
182
194
186
199
210
221
231
239
245
249
250
250
247
242
234
226
215
204
192
180
168
156
146
138
131
126
123
123
124
129
135
143
153
164
175
188
200
211
222
232
239
245
249
250
250
246
241
234
225
214
203
191
178
167
155
145
137
130
125
123
123
125
129
136
144
154
165
177
189
201
213
223
232
240
246
249
250
249
246
240
233
224
213
202
189
177
165
154
144
136
129
125
123
123
125
130
136
145
155
166
178
190
181
193
204
215
225
233
239
243
245
244
241
236
229
220
209
198
186
174
162
151
140
132
125
120
117
117
119
123
129
137
147
158
170
182
194
206
216
226
234
239
243
245
244
241
235
228
219
208
197
185
173
161
150
139
131
124
119
117
117
119
123
130
138
148
159
171
183
195
207
217
227
234
240
243
245
243
240
235
227
218
207
196
184
171
160
148
139
130
124
119
117
117
119
124
131
139
149
160
172
184
173
185
197
208
217
225
231
235
237
236
233
228
221
212
202
190
178
166
154
143
133
124
117
112
109
109
111
115
121
129
139
150
162
174
186
198
209
218
226
232
235
237
236
233
227
220
211
201
189
177
165
153
142
132
123
116
112
109
109
111
116
122
130
140
151
163
175
187
199
210
219
226
232
236
237
236
232
227
219
210
199
188
176
164
152
141
131
122
116
111
109
109
112
116
123
131
141
152
164
177
163
176
187
198
208
216
222
226
227
227
224
219
212
203
192
181
169
157
145
133
123
115
108
103
100
100
101
106
112
120
130
141
153
165
177
188
199
209
216
222
226
227
227
223
218
211
202
191
180
168
156
144
132
122
114
107
102
100
100
102
106
113
121
131
142
154
166
178
190
200
209
217
223
226
227
226
223
217
210
201
190
179
166
154
142
131
121
113
106
102
100
100
102
107
113
122
132
143
155
167
153
165
177
187
197
205
211
215
217
216
213
208
201
192
182
170
158
146
134
123
113
104
97
92
89
89
91
95
101
109
119
130
142
154
166
178
188
198
206
212
215
217
216
213
207
200
191
180
169
157
145
133
122
112
103
96
92
89
89
91
96
102
110
120
131
143
155
167
179
189
199
206
212
216
217
216
212
207
199
190
179
168
156
144
132
121
111
102
96
91
89
89
91
96
103
111
121
132
144
156
141
153
165
176
185
193
199
203
205
204
201
196
189
180
170
159
147
134
122
111
101
92
85
80
78
77
79
83
90
98
107
118
130
142
154
166
177
186
194
200
204
205
204
201
196
188
179
169
157
145
133
121
110
100
91
85
80
78
77
79
84
90
99
109
120
131
144
156
167
178
187
195
200
204
205
204
201
195
188
178
168
156
144
132
120
109
99
91
84
80
77
77
80
84
91
100
110
121
133
145
129
141
153
164
173
181
187
191
193
192
189
184
177
168
158
146
134
122
110
99
89
80
73
68
66
65
67
71
77
86
95
106
118
130
142
154
165
174
182
188
192
193
192
189
184
176
167
157
145
133
121
109
98
88
79
73
68
65
65
67
72
78
87
96
107
119
131
144
155
166
175
183
188
192
193
192
188
183
175
166
156
144
132
120
108
97
87
79
72
68
65
65
68
72
79
87
97
109
121
133
117
129
141
152
161
169
175
179
181
180
177
172
165
156
146
134
122
110
98
87
77
68
61
56
53
53
55
59
65
73
83
94
106
118
130
142
153
162
170
176
179
181
180
177
171
164
155
145
133
121
109
97
86
76
67
60
56
53
53
55
60
66
74
84
95
107
119
131
143
154
163
170
176
180
181
180
176
171
163
154
143
132
120
108
96
85
75
66
60
55
53
53
56
60
67
75
85
96
108
121
105
117
129
140
149
157
163
167
169
168
165
160
153
144
134
123
111
98
86
75
65
56
49
44
42
41
43
47
54
62
71
82
94
106
118
130
141
150
158
164
168
169
168
165
160
152
143
133
121
109
97
85
74
64
55
49
44
41
41
43
48
54
63
72
84
95
108
120
131
142
151
159
164
168
169
168
165
159
151
142
132
120
108
96
84
73
63
55
48
44
41
41
44
48
55
64
74
85
97
109
94
106
118
129
138
146
152
156
158
157
154
149
142
133
123
112
100
87
75
64
54
45
38
33
31
30
32
36
43
51
60
71
83
95
107
119
130
139
147
153
157
158
157
154
149
141
132
122
110
98
86
74
63
53
44
38
33
30
30
32
37
43
52
61
73
84
97
109
120
131
140
148
153
157
158
157
154
148
140
131
121
109
97
85
73
62
52
44
37
33
30
30
33
37
44
53
63
74
86
98
84
96
108
119
129
137
143
147
148
148
145
140
132
124
113
102
90
78
66
54
44
35
28
24
21
20
22
27
33
41
51
62
73
86
98
109
120
129
137
143
147
148
147
144
139
132
123
112
101
89
76
64
53
43
35
28
23
21
21
23
27
34
42
52
63
75
87
99
110
121
130
138
144
147
148
147
144
138
131
122
111
99
87
75
63
52
42
34
27
23
21
21
23
28
34
43
53
64
76
88
76
88
100
111
120
128
134
138
140
139
137
131
124
115
105
94
82
69
57
46
36
27
20
15
13
12
14
18
25
33
42
53
65
77
90
101
112
121
129
135
139
140
139
136
131
123
114
104
92
80
68
56
45
35
26
20
15
13
12
15
19
25
34
44
55
66
79
91
102
113
122
130
135
139
140
139
136
130
123
113
103
91
79
67
55
44
34
26
19
15
12
12
15
19
26
35
45
56
68
80
70
82
94
105
114
122
128
132
134
133
130
125
118
109
99
87
75
63
51
40
30
21
14
9
6
6
8
12
18
26
36
47
59
71
83
95
106
115
123
129
132
134
133
130
124
117
108
98
86
74
62
50
39
29
20
13
9
6
6
8
13
19
27
37
48
60
72
84
96
107
116
123
129
133
134
133
129
124
116
107
96
85
73
61
49
38
28
19
13
8
6
6
9
13
20
28
38
49
61
74
66
78
89
100
110
118
124
128
130
129
126
121
114
105
94
83
71
59
47
36
25
17
10
5
2
2
4
8
14
22
32
43
55
67
79
91
101
111
119
124
128
130
129
126
120
113
104
93
82
70
58
46
35
25
16
9
4
2
2
4
8
15
23
33
44
56
68
80
92
102
112
119
125
128
130
128
125
120
112
103
92
81
69
56
45
33
24
15
9
4
2
2
4
9
16
24
34
45
57
69
64
76
87
98
108
116
122
126
128
127
124
119
112
103
92
81
69
57
45
34
23
15
8
3
0
0
2
6
12
20
30
41
53
65
77
89
99
109
117
122
126
128
127
124
118
111
102
91
80
68
56
44
33
23
14
7
3
0
0
2
6
13
21
31
42
54
66
78
90
100
110
117
123
126
128
127
123
118
110
101
90
79
67
54
43
32
22
13
7
2
0
0
2
7
14
22
32
43
55
67
64
76
88
99
108
116
122
126
128
127
124
119
112
103
93
81
69
57
45
34
24
15
8
3
1
0
2
6
12
21
30
41
53
65
77
89
100
109
117
123
127
128
127
124
119
111
102
92
80
68
56
44
33
23
14
8
3
0
0
2
7
13
22
31
42
54
66
79
90
101
110
118
123
127
128
127
123
118
110
101
91
79
67
55
43
32
22
14
7
3
0
0
3
7
14
22
32
44
56
68
67
79
91
101
111
119
125
129
131
130
127
122
115
106
96
84
72
60
48
37
27
18
11
6
3
3
5
9
15
23
33
44
56
68
80
92
102
112
120
125
129
131
130
127
121
114
105
94
83
71
59
47
36
26
17
10
6
3
3
5
9
16
24
34
45
57
69
81
93
103
113
120
126
129
131
130
126
121
113
104
93
82
70
57
46
35
25
16
10
5
3
3
5
10
17
25
35
46
58
70
72
84
95
106
116
124
130
134
135
135
132
127
120
111
100
89
77
65
53
42
31
23
16
11
8
8
10
14
20
28
38
49
61
73
85
97
107
117
124
130
134
136
135
131
126
119
110
99
88
76
64
52
40
30
22
15
10
8
8
10
14
21
29
39
50
62
74
86
98
108
118
125
131
134
136
134
131
125
118
109
98
87
75
62
51
39
29
21
15
10
8
8
10
15
22
30
40
51
63
75
78
91
102
113
123
131
137
141
142
142
139
134
127
118
107
96
84
72
60
48
38
30
23
18
15
15
16
21
27
35
45
56
68
80
92
103
114
124
131
137
141
142
142
138
133
126
117
106
95
83
70
59
47
37
29
22
17
15
15
17
21
28
36
46
57
69
81
93
105
115
124
132
138
141
142
141
138
132
125
116
105
94
81
69
57
46
36
28
21
17
15
15
17
22
28
37
47
58
70
82
87
99
111
122
131
139
145
149
151
150
147
142
135
126
116
105
93
80
68
57
47
38
31
26
24
23
25
29
36
44
53
64
76
88
101
112
123
132
140
146
150
151
150
147
142
134
125
115
103
91
79
67
56
46
37
31
26
24
23
26
30
36
45
55
66
77
90
102
113
124
133
141
146
150
151
150
147
141
134
124
114
102
90
78
66
55
45
37
30
26
23
23
26
30
37
46
56
67
79
91
97
109
121
132
142
150
156
160
161
161
158
153
145
136
126
115
103
91
79
67
57
48
41
37
34
33
35
40
46
54
64
75
86
99
111
122
133
142
150
156
160
161
160
157
152
145
135
125
114
102
89
77
66
56
48
41
36
34
34
36
40
47
55
65
76
88
100
112
123
134
143
151
157
160
161
160
157
151
144
134
124
112
100
88
76
65
55
47
40
36
34
34
36
41
47
56
66
77
89
101
109
121
132
143
153
161
167
171
173
172
169
164
157
148
137
126
114
102
90
79
68
60
53
48
45
45
47
51
57
65
75
86
98
110
122
134
144
154
162
167
171
173
172
168
163
156
147
136
125
113
101
89
78
67
59
52
47
45
45
47
51
58
66
76
87
99
111
123
135
145
155
162
168
171
173
171
168
162
155
146
135
124
112
99
88
76
67
58
52
47
45
45
47
52
59
67
77
88
100
112
121
133
144
155
165
173
179
183
184
184
181
176
169
160
149
138
126
114
102
91
80
72
65
60
57
57
59
63
69
77
87
98
110
122
134
146
156
166
173
179
183
184
184
180
175
168
159
148
137
125
113
101
89
79
71
64
59
57
57
59
63
70
78
88
99
111
123
135
147
157
167
174
180
183
185
183
180
174
167
158
147
136
124
111
99
88
78
70
64
59
57
57
59
64
71
79
89
100
112
124
133
145
157
167
177
185
191
195
197
196
193
188
181
172
162
150
138
126
114
103
93
84
77
72
69
69
71
75
81
89
99
110
122
134
146
158
168
178
186
192
195
197
196
193
187
180
171
160
149
137
125
113
102
92
83
76
72
69
69
71
75
82
90
100
111
123
135
147
159
169
179
186
192
196
197
196
192
187
179
170
159
148
136
124
112
101
91
82
76
71
69
69
71
76
83
91
101
112
124
136
145
157
169
179
189
197
203
207
209
208
205
200
193
184
174
162
150
138
126
115
105
96
89
84
81
81
83
87
93
101
111
122
134
146
158
170
180
190
198
204
207
209
208
205
199
192
183
172
161
149
137
125
114
104
95
88
84
81
81
83
87
94
102
112
123
135
147
159
171
181
191
198
204
208
209
208
204
199
191
182
171
160
148
136
124
113
103
94
88
83
81
81
83
88
95
103
113
124
136
148
156
168
180
191
200
208
214
218
220
219
216
211
204
195
185
174
162
149
137
126
116
107
100
95
93
92
94
98
105
113
122
133
145
157
169
181
192
201
209
215
219
220
219
216
211
203
194
184
172
160
148
136
125
115
106
100
95
93
92
94
99
105
114
124
135
146
159
171
182
193
202
210
215
219
220
219
216
210
203
193
183
171
159
147
135
124
114
106
99
95
92
92
95
99
106
115
125
136
148
160
166
179
190
201
211
219
225
229
230
230
227
222
215
206
195
184
172
160
148
137
126
118
111
106
103
103
105
109
115
123
133
144
156
168
180
191
202
212
219
225
229
230
230
226
221
214
205
194
183
171
159
147
135
125
117
110
105
103
103
105
109
116
124
134
145
157
169
181
193
203
212
220
226
229
230
229
226
220
213
204
193
182
169
157
145
134
124
116
109
105
103
103
105
110
116
125
135
146
158
170
175
188
199
210
220
228
234
238
239
239
236
231
223
215
204
193
181
169
157
145
135
127
120
115
112
112
113
118
124
132
142
153
164
177
189
200
211
221
228
234
238
239
238
235
230
223
214
203
192
180
167
156
144
134
126
119
114
112
112
114
118
125
133
143
154
166
178
190
202
212
221
229
235
238
239
238
235
229
222
213
202
190
178
166
154
143
133
125
118
114
112
112
114
119
125
134
144
155
167
179
183
195
206
217
227
235
241
245
247
246
243
238
231
222
211
200
188
176
164
153
142
134
127
122
119
119
121
125
131
139
149
160
172
184
196
208
218
228
236
241
245
247
246
243
237
230
221
210
199
187
175
163
152
141
133
126
121
119
119
121
125
132
140
150
161
173
185
197
209
219
229
236
242
245
247
245
242
237
229
220
209
198
186
173
162
150
141
132
126
121
119
119
121
126
133
141
151
162
174
186
188
200
212
222
232
240
246
250
252
251
248
243
236
227
217
205
193
181
169
158
148
139
132
127
124
124
126
130
136
144
154
165
177
189
201
213
223
233
241
247
250
252
251
248
242
235
226
216
204
192
180
168
157
147
138
131
127
124
124
126
131
137
145
155
166
178
190
202
214
225
234
241
247
251
252
251
247
242
234
225
214
203
191
179
167
156
146
137
131
126
124
124
126
131
138
146
156
167
179
191
191
203
215
225
235
243
249
253
255
254
251
246
239
230
220
208
196
184
172
161
151
142
135
130
127
127
129
133
139
147
157
168
180
192
204
216
226
236
244
250
253
255
254
251
245
238
229
219
207
195
183
171
160
150
141
134
130
127
127
129
134
140
148
158
169
181
193
205
217
228
237
244
250
254
255
254
250
245
237
228
217
206
194
182
170
159
149
140
134
129
127
127
129
134
141
149
159
170
182
194
191
204
215
226
236
244
250
254
255
255
252
247
240
231
220
209
197
185
173
161
151
143
136
131
128
128
129
134
140
148
158
169
181
193
205
216
227
237
244
250
254
255
255
251
246
239
230
219
208
196
184
172
160
150
142
135
130
128
128
130
134
141
149
159
170
182
194
206
218
228
237
245
251
254
255
254
251
245
238
229
218
207
194
182
170
159
149
141
134
130
128
128
130
135
141
150
160
171
183
195
190
202
214
225
234
242
248
252
254
253
250
245
238
229
219
207
195
183
171
160
150
141
134
129
126
126
128
132
138
146
156
167
179
191
203
215
226
235
243
249
252
254
253
250
244
237
228
218
206
194
182
170
159
149
140
133
129
126
126
128
133
139
147
157
168
180
192
204
216
227
236
243
249
253
254
253
249
244
236
227
216
205
193
181
169
158
148
139
133
128
126
126
129
133
140
148
158
169
181
194
186
198
210
221
230
238
244
248
250
249
246
241
234
225
215
203
191
179
167
156
146
137
130
125
122
122
124
128
134
143
152
163
175
187
199
211
222
231
239
245
248
250
249
246
241
233
224
214
202
190
178
166
155
145
136
129
125
122
122
124
129
135
143
153
164
176
188
200
212
223
232
240
245
249
250
249
245
240
232
223
213
201
189
177
165
154
144
135
129
124
122
122
125
129
136
144
154
166
177
190
180
192
204
215
224
232
238
242
244
243
240
235
228
219
209
197
185
173
161
150
140
131
124
119
116
116
118
122
128
137
146
157
169
181
193
205
216
225
233
239
242
244
243
240
234
227
218
208
196
184
172
160
149
139
130
123
119
116
116
118
123
129
137
147
158
170
182
194
206
217
226
234
239
243
244
243
239
234
226
217
207
195
183
171
159
148
138
129
123
118
116
116
119
123
130
138
148
160
171
184
172
184
196
207
216
224
230
234
236
235
232
227
220
211
201
189
177
165
153
142
132
123
116
111
108
108
110
114
120
129
138
149
161
173
185
197
208
217
225
231
235
236
235
232
227
219
210
200
188
176
164
152
141
131
122
116
111
108
108
110
115
121
130
139
150
162
174
187
198
209
218
226
231
235
236
235
231
226
218
209
199
187
175
163
151
140
130
122
115
110
108
108
111
115
122
130
140
152
163
176
162
175
186
197
207
215
221
225
226
226
223
218
210
202
191
180
168
156
144
132
122
114
107
102
99
99
100
105
111
119
129
140
151
164
176
187
198
208
215
221
225
226
226
222
217
210
201
190
179
167
154
143
131
121
113
106
101
99
99
101
105
112
120
130
141
153
165
177
189
199
208
216
222
225
226
225
222
216
209
200
189
178
165
153
141
130
120
112
105
101
99
99
101
106
112
121
131
142
154
166
152
164
175
186
196
204
210
214
216
215
212
207
200
191
180
169
157
145
133
122
111
103
96
91
88
88
90
94
100
108
118
129
141
153
165
177
187
197
205
210
214
216
215
212
206
199
190
179
168
156
144
132
121
110
102
95
90
88
88
90
94
101
109
119
130
142
154
166
178
188
198
205
211
214
216
214
211
206
198
189
178
167
155
142
131
119
110
101
95
90
88
88
90
95
102
110
120
131
143
155
140
152
164
175
184
192
198
202
204
203
200
195
188
179
169
157
145
133
121
110
100
91
84
79
76
76
78
82
88
97
106
117
129
141
153
165
176
185
193
199
202
204
203
200
194
187
178
168
156
144
132
120
109
99
90
83
79
76
76
78
83
89
97
107
118
130
142
154
166
177
186
194
199
203
204
203
199
194
186
177
167
155
143
131
119
108
98
89
83
78
76
76
79
83
90
98
108
120
131
144
128
140
152
162
172
180
186
190
192
191
188
183
176
167
157
145
133
121
109
98
88
79
72
67
64
64
66
70
76
84
94
105
117
129
141
153
163
173
181
187
190
192
191
188
182
175
166
156
144
132
120
108
97
87
78
71
67
64
64
66
71
77
85
95
106
118
130
142
154
165
174
181
187
191
192
191
187
182
174
165
154
143
131
119
107
96
86
77
71
66
64
64
66
71
78
86
96
107
119
131
116
128
139
150
160
168
174
178
180
179
176
171
164
155
144
133
121
109
97
86
75
67
60
55
52
52
54
58
64
72
82
93
105
117
129
141
151
161
169
174
178
180
179
176
170
163
154
143
132
120
108
96
85
75
66
59
54
52
52
54
58
65
73
83
94
106
118
130
142
152
162
169
175
178
180
179
175
170
162
153
142
131
119
106
95
83
74
65
59
54
52
52
54
59
66
74
84
95
107
119
104
116
128
139
148
156
162
166
168
167
164
159
152
143
133
121
109
97
85
74
64
55
48
43
40
40
42
46
52
61
70
81
93
105
117
129
140
149
157
163
166
168
167
164
158
151
142
132
120
108
96
84
73
63
54
47
43
40
40
42
47
53
61
71
82
94
106
118
130
141
150
158
163
167
168
167
163
158
150
141
131
119
107
95
83
72
62
53
47
42
40
40
43
47
54
62
72
84
95
108
93
105
117
128
137
145
151
155
157
156
153
148
141
132
122
111
99
86
74
63
53
44
37
32
30
29
31
35
42
50
59
70
82
94
106
118
129
138
146
152
156
157
156
153
148
140
131
121
109
97
85
73
62
52
43
37
32
29
29
31
36
42
51
60
71
83
96
108
119
130
139
147
152
156
157
156
153
147
139
130
120
108
96
84
72
61
51
43
36
32
29
29
32
36
43
52
62
73
85
97
83
96
107
118
128
136
142
146
147
147
144
139
131
123
112
101
89
77
65
53
43
35
28
23
20
20
21
26
32
40
50
61
72
85
97
108
119
129
136
142
146
147
147
143
138
131
122
111
100
88
75
64
52
42
34
27
22
20
20
22
26
33
41
51
62
74
86
98
110
120
129
137
143
146
147
146
143
137
130
121
110
99
86
74
62
51
41
33
26
22
20
20
22
27
33
42
52
63
75
87
75
88
99
110
120
128
134
138
139
139
136
131
123
115
104
93
81
69
57
45
35
27
20
15
12
12
13
18
24
32
42
53
64
77
89
100
111
121
128
134
138
139
139
135
130
123
114
103
92
80
67
56
44
34
26
19
14
12
12
14
18
25
33
43
54
66
78
90
102
112
121
129
135
138
139
138
135
129
122
113
102
91
78
66
54
43
33
25
18
14
12
12
14
19
25
34
44
55
67
79
69
81
93
104
114
122
128
132
133
133
130
125
117
108
98
87
75
63
51
39
29
20
13
9
6
5
7
12
18
26
36
47
58
71
83
94
105
114
122
128
132
133
132
129
124
117
107
97
86
74
61
49
38
28
20
13
8
6
6
8
12
19
27
37
48
60
72
84
95
106
115
123
129
132
133
132
129
123
116
106
96
84
72
60
48
37
27
19
12
8
6
6
8
13
19
28
38
49
61
73
65
77
89
100
110
118
124
128
129
129
126
121
113
104
94
83
71
59
47
35
25
16
9
5
2
1
3
8
14
22
32
43
54
67
79
90
101
110
118
124
128
129
128
125
120
113
103
93
82
70
57
45
34
24
16
9
4
2
2
4
8
15
23
33
44
56
68
80
91
102
111
119
125
128
129
128
125
119
112
102
92
80
68
56
44
33
23
15
8
4
2
2
4
9
15
24
34
45
57
69
64
76
87
98
108
116
122
126
128
127
124
119
112
103
92
81
69
57
45
34
23
15
8
3
0
0
2
6
12
20
30
41
53
65
77
89
99
109
117
122
126
128
127
124
118
111
102
91
80
68
56
44
33
22
14
7
2
0
0
2
6
13
21
31
42
54
66
78
90
100
110
117
123
126
128
126
123
117
110
101
90
79
67
54
43
31
22
13
7
2
0
0
2
7
14
22
32
43
55
67
64
76
88
99
108
116
122
126
128
127
125
119
112
103
93
82
70
57
45
34
24
15
8
3
1
0
2
6
13
21
31
41
53
65
78
89
100
109
117
123
127
128
127
124
119
111
102
92
80
68
56
44
33
23
14
8
3
1
0
3
7
13
22
32
43
54
67
79
90
101
110
118
123
127
128
127
124
118
111
101
91
79
67
55
43
32
22
14
7
3
0
0
3
7
14
23
33
44
56
68
67
79
91
102
111
119
125
129
131
130
127
122
115
106
96
85
73
60
48
37
27
18
11
6
4
3
5
9
16
24
33
44
56
68
80
92
103
112
120
126
130
131
130
127
122
114
105
95
83
71
59
47
36
26
17
11
6
3
3
5
10
16
25
34
46
57
70
82
93
104
113
121
126
130
131
130
127
121
113
104
94
82
70
58
46
35
25
17
10
6
3
3
6
10
17
26
36
47
59
71
72
84
96
107
116
124
130
134
136
135
133
127
120
111
101
90
78
65
53
42
32
23
16
11
9
8
10
14
21
29
38
49
61
73
86
97
108
117
125
131
135
136
135
132
127
119
110
100
88
76
64
52
41
31
22
16
11
9
8
11
15
21
30
40
51
62
75
87
98
109
118
126
131
135
136
135
132
126
119
109
99
87
75
63
51
40
30
22
15
11
8
8
11
15
22
31
41
52
64
76
79
91
103
114
124
131
138
142
143
143
140
134
127
118
108
97
85
73
61
49
39
30
23
18
16
15
17
21
28
36
46
57
68
80
93
104
115
124
132
138
142
143
142
139
134
126
117
107
96
84
71
59
48
38
30
23
18
16
15
18
22
28
37
47
58
70
82
94
105
116
125
133
139
142
143
142
139
133
126
116
106
94
82
70
58
47
37
29
22
18
16
16
18
23
29
38
48
59
71
83
88
100
112
123
132
140
146
150
152
151
148
143
136
127
117
106
94
81
69
58
48
39
32
27
25
24
26
30
37
45
54
65
77
89
101
113
124
133
141
147
151
152
151
148
143
135
126
116
104
92
80
68
57
47
38
32
27
24
24
26
31
37
46
56
67
78
91
103
114
125
134
142
147
151
152
151
148
142
135
125
115
103
91
79
67
56
46
38
31
27
24
24
27
31
38
47
57
68
80
92
98
111
122
133
143
151
157
161
162
162
159
154
146
138
127
116
104
92
80
68
58
50
43
38
35
35
36
41
47
55
65
76
87
100
112
123
134
144
151
157
161
162
162
158
153
146
137
126
115
103
90
79
67
57
49
42
37
35
35
37
41
48
56
66
77
89
101
113
125
135
144
152
158
161
162
161
158
152
145
136
125
113
101
89
77
66
56
48
41
37
35
35
37
42
48
57
67
78
90
102
110
122
134
144
154
162
168
172
174
173
170
165
158
149
139
127
115
103
91
80
70
61
54
49
46
46
48
52
58
66
76
87
99
111
123
135
145
155
163
169
172
174
173
170
164
157
148
137
126
114
102
90
79
69
60
53
49
46
46
48
53
59
67
77
88
100
112
124
136
147
156
163
169
173
174
173
169
164
156
147
136
125
113
101
89
78
68
59
53
48
46
46
48
53
60
68
78
89
101
113
122
134
146
156
166
174
180
184
186
185
182
177
170
161
151
139
127
115
103
92
82
73
66
61
58
58
60
64
70
78
88
99
111
123
135
147
157
167
175
181
184
186
185
182
176
169
160
149
138
126
114
102
91
81
72
65
61
58
58
60
65
71
79
89
100
112
124
136
148
158
168
175
181
185
186
185
181
176
168
159
148
137
125
113
101
90
80
71
65
60
58
58
60
65
72
80
90
101
113
125
134
146
158
169
178
186
192
196
198
197
194
189
182
173
163
151
139
127
115
104
94
85
78
73
70
70
72
76
82
91
100
111
123
135
147
159
170
179
187
193
196
198
197
194
189
181
172
162
150
138
126
114
103
93
84
78
73
70
70
72
77
83
91
101
112
124
136
149
160
171
180
188
193
197
198
197
193
188
180
171
161
149
137
125
113
102
92
84
77
72
70
70
73
77
84
92
102
114
125
138
146
158
170
181
190
198
204
208
210
209
206
201
194
185
175
163
151
139
127
116
106
97
90
85
82
82
84
88
94
103
112
123
135
147
159
171
182
191
199
205
208
210
209
206
201
193
184
174
162
150
138
126
115
105
96
89
85
82
82
84
89
95
103
113
124
136
148
160
172
183
192
200
205
209
210
209
205
200
192
183
173
161
149
137
125
114
104
95
89
84
82
82
85
89
96
104
114
126
137
150
157
169
181
192
201
209
216
219
221
221
218
212
205
196
186
175
163
151
139
127
117
108
101
96
94
93
95
99
106
114
124
135
146
158
171
182
193
202
210
216
220
221
220
217
212
204
195
185
174
161
149
137
126
116
108
101
96
94
93
96
100
106
115
125
136
148
160
172
183
194
203
211
217
220
221
220
217
211
204
194
184
172
160
148
136
125
115
107
100
96
93
94
96
101
107
116
126
137
149
161
167
180
191
202
212
220
226
230
231
231
228
223
216
207
196
185
173
161
149
137
127
119
112
107
104
104
105
110
116
124
134
145
157
169
181
192
203
213
220
226
230
231
231
227
222
215
206
195
184
172
159
148
136
126
118
111
106
104
104
106
110
117
125
135
146
158
170
182
194
204
213
221
227
230
231
230
227
221
214
205
194
183
170
158
146
135
125
117
110
106
104
104
106
111
117
126
136
147
159
171
176
188
200
211
220
228
235
238
240
240
237
231
224
215
205
194
182
169
158
146
136
127
120
115
113
112
114
118
125
133
143
154
165
177
190
201
212
221
229
235
239
240
239
236
231
223
214
204
193
180
168
156
145
135
127
120
115
113
112
115
119
125
134
144
155
166
179
191
202
213
222
230
235
239
240
239
236
230
223
213
203
191
179
167
155
144
134
126
119
115
112
113
115
120
126
135
145
156
168
180
183
195
207
218
227
235
242
245
247
247
244
238
231
222
212
201
189
176
165
153
143
134
127
122
120
119
121
125
132
140
150
160
172
184
197
208
219
228
236
242
246
247
246
243
238
230
221
211
199
187
175
163
152
142
134
127
122
120
119
122
126
132
141
151
162
173
186
198
209
220
229
237
242
246
247
246
243
237
230
220
210
198
186
174
162
151
141
133
126
122
119
120
122
127
133
142
152
163
175
187
188
200
212
223
232
240
246
250
252
251
249
243
236
227
217
206
194
181
169
158
148
139
132
127
125
124
126
130
137
145
155
165
177
189
202
213
224
233
241
247
251
252
251
248
243
235
226
216
204
192
180
168
157
147
139
132
127
125
124
127
131
137
146
156
167
178
191
203
214
225
234
242
247
251
252
251
248
242
235
225
215
203
191
179
167
156
146
138
131
127
124
124
127
131
138
147
157
168
180
192
191
203
215
226
235
243
249
253
255
254
251
246
239
230
220
208
196
184
172
161
151
142
135
130
127
127
129
133
139
148
157
168
180
192
204
216
227
236
244
250
253
255
254
251
246
238
229
219
207
195
183
171
160
150
141
135
130
127
127
129
134
140
148
158
169
181
193
206
217
228
237
245
250
254
255
254
250
245
237
228
218
206
194
182
170
159
149
140
134
129
127
127
130
134
141
149
159
171
182
195
191
204
215
226
236
244
250
254
255
255
252
247
239
231
220
209
197
185
173
161
151
143
136
131
128
128
129
134
140
148
158
169
180
193
205
216
227
237
244
250
254
255
254
251
246
239
230
219
208
196
183
172
160
150
142
135
130
128
128
130
134
141
149
159
170
182
194
206
218
228
237
245
251
254
255
254
251
245
238
229
218
206
194
182
170
159
149
141
134
130
128
128
130
135
141
150
160
171
183
195
