P2
2 2 256
192
184
64
56
